<svg xmlns="http://www.w3.org/2000/svg" width="960" height="620" viewBox="0 0 960 620"><rect width="960" height="620" fill="#0a0f1a"/><text x="480" y="34" fill="#e8eefc" font-size="22" font-weight="bold" text-anchor="middle" font-family="Segoe UI, sans-serif">CIDADE &#8212; REDE ELETRICA (SCADA)</text><line x1="180" y1="300" x2="820" y2="300" stroke="#f5c542" stroke-width="4"/><text x="480" y="292" fill="#f5c542" font-size="12" text-anchor="middle" font-family="Segoe UI, sans-serif">BARRA DE TRANSMISSAO 138 kV</text><rect x="60" y="95" width="240" height="135" rx="8" fill="#0e1726" stroke="#4aa3ff" stroke-width="2"/><text x="70" y="111" fill="#4aa3ff" font-size="13" font-family="Segoe UI, sans-serif" font-weight="bold">USINA HIDRO</text><rect x="700" y="95" width="240" height="135" rx="8" fill="#0e1726" stroke="#4aa3ff" stroke-width="2"/><text x="710" y="111" fill="#4aa3ff" font-size="13" font-family="Segoe UI, sans-serif" font-weight="bold">USINA TERMICA</text><line x1="180" y1="230" x2="180" y2="300" stroke="#3b4a63" stroke-width="3"/><line x1="820" y1="230" x2="820" y2="300" stroke="#3b4a63" stroke-width="3"/><rect x="60" y="350" width="270" height="165" rx="8" fill="#0e1726" stroke="#7ee081" stroke-width="2"/><text x="70" y="366" fill="#7ee081" font-size="13" font-family="Segoe UI, sans-serif" font-weight="bold">BAIRRO INDUSTRIAL</text><rect x="390" y="350" width="270" height="165" rx="8" fill="#0e1726" stroke="#7ee081" stroke-width="2"/><text x="400" y="366" fill="#7ee081" font-size="13" font-family="Segoe UI, sans-serif" font-weight="bold">BAIRRO CENTRO</text><rect x="720" y="350" width="220" height="165" rx="8" fill="#0e1726" stroke="#ff8f6b" stroke-width="2"/><text x="730" y="366" fill="#ff8f6b" font-size="13" font-family="Segoe UI, sans-serif" font-weight="bold">BAIRRO HOSPITAL</text><line x1="195" y1="300" x2="195" y2="350" stroke="#3b4a63" stroke-width="3"/><line x1="525" y1="300" x2="525" y2="350" stroke="#3b4a63" stroke-width="3"/><line x1="830" y1="300" x2="830" y2="350" stroke="#3b4a63" stroke-width="3"/></svg>